<svg width="161" height="34" viewBox="0 0 161 34" fill="none" xmlns="http://www.w3.org/2000/svg">
<path d="M16.9176 14.6562H13.1847C13.1165 14.1733 12.9773 13.7443 12.767 13.3693C12.5568 12.9886 12.2869 12.6648 11.9574 12.3977C11.6278 12.1307 11.2472 11.9261 10.8153 11.7841C10.3892 11.642 9.92614 11.571 9.42614 11.571C8.52273 11.571 7.7358 11.7955 7.06534 12.2443C6.39489 12.6875 5.875 13.3352 5.50568 14.1875C5.13636 15.0341 4.9517 16.0625 4.9517 17.2727C4.9517 18.517 5.13636 19.5625 5.50568 20.4091C5.88068 21.2557 6.40341 21.8949 7.07386 22.3267C7.74432 22.7585 8.51989 22.9744 9.40057 22.9744C9.89489 22.9744 10.3523 22.9091 10.7727 22.7784C11.1989 22.6477 11.5767 22.4574 11.9062 22.2074C12.2358 21.9517 12.5085 21.642 12.7244 21.2784C12.946 20.9148 13.0994 20.5 13.1847 20.0341L16.9176 20.0511C16.821 20.8523 16.5795 21.625 16.1932 22.3693C15.8125 23.108 15.2983 23.7699 14.6506 24.3551C14.0085 24.9347 13.2415 25.3949 12.3494 25.7358C11.4631 26.071 10.4602 26.2386 9.34091 26.2386C7.78409 26.2386 6.39205 25.8864 5.16477 25.1818C3.94318 24.4773 2.97727 23.4574 2.26705 22.1222C1.5625 20.7869 1.21023 19.1705 1.21023 17.2727C1.21023 15.3693 1.56818 13.75 2.28409 12.4148C3 11.0795 3.97159 10.0625 5.19886 9.36364C6.42614 8.65909 7.80682 8.30682 9.34091 8.30682C10.3523 8.30682 11.2898 8.44886 12.1534 8.73295C13.0227 9.01705 13.7926 9.43182 14.4631 9.97727C15.1335 10.517 15.679 11.179 16.0994 11.9631C16.5256 12.7472 16.7983 13.6449 16.9176 14.6562ZM23.1264 8.54545V26H19.4957V8.54545H23.1264ZM32.0007 26.2557C30.6541 26.2557 29.495 25.983 28.5234 25.4375C27.5575 24.8864 26.8132 24.108 26.2905 23.1023C25.7678 22.0909 25.5064 20.8949 25.5064 19.5142C25.5064 18.1676 25.7678 16.9858 26.2905 15.9688C26.8132 14.9517 27.549 14.1591 28.4979 13.5909C29.4524 13.0227 30.5717 12.7386 31.8558 12.7386C32.7195 12.7386 33.5234 12.8778 34.2678 13.1562C35.0178 13.429 35.6712 13.8409 36.228 14.392C36.7905 14.9432 37.228 15.6364 37.5405 16.4716C37.853 17.3011 38.0092 18.2727 38.0092 19.3864V20.3835H26.9553V18.1335H34.5916C34.5916 17.6108 34.478 17.1477 34.2507 16.7443C34.0234 16.3409 33.7081 16.0256 33.3047 15.7983C32.907 15.5653 32.4439 15.4489 31.9155 15.4489C31.3643 15.4489 30.8757 15.5767 30.4496 15.8324C30.0291 16.0824 29.6996 16.4205 29.4609 16.8466C29.2223 17.267 29.1001 17.7358 29.0945 18.2528V20.392C29.0945 21.0398 29.2138 21.5994 29.4524 22.071C29.6967 22.5426 30.0405 22.9062 30.4837 23.1619C30.9268 23.4176 31.4524 23.5455 32.0604 23.5455C32.4638 23.5455 32.8331 23.4886 33.1683 23.375C33.5036 23.2614 33.7905 23.0909 34.0291 22.8636C34.2678 22.6364 34.4496 22.358 34.5746 22.0284L37.9325 22.25C37.7621 23.0568 37.4126 23.7614 36.8842 24.3636C36.3615 24.9602 35.6854 25.4261 34.8558 25.7614C34.032 26.0909 33.0803 26.2557 32.0007 26.2557ZM44.1115 26.2472C43.2763 26.2472 42.532 26.1023 41.8786 25.8125C41.2251 25.517 40.7081 25.0824 40.3274 24.5085C39.9524 23.929 39.7649 23.2074 39.7649 22.3438C39.7649 21.6165 39.8984 21.0057 40.1655 20.5114C40.4325 20.017 40.7962 19.6193 41.2564 19.3182C41.7166 19.017 42.2393 18.7898 42.8246 18.6364C43.4155 18.483 44.0348 18.375 44.6825 18.3125C45.4439 18.233 46.0575 18.1591 46.5234 18.0909C46.9893 18.017 47.3274 17.9091 47.5376 17.767C47.7479 17.625 47.853 17.4148 47.853 17.1364V17.0852C47.853 16.5455 47.6825 16.1278 47.3416 15.8324C47.0064 15.5369 46.5291 15.3892 45.9098 15.3892C45.2564 15.3892 44.7365 15.5341 44.3501 15.8239C43.9638 16.108 43.7081 16.4659 43.5831 16.8977L40.2251 16.625C40.3956 15.8295 40.7308 15.142 41.2308 14.5625C41.7308 13.9773 42.3757 13.5284 43.1655 13.2159C43.9609 12.8977 44.8814 12.7386 45.9268 12.7386C46.6541 12.7386 47.3501 12.8239 48.0149 12.9943C48.6854 13.1648 49.2791 13.429 49.7962 13.7869C50.3189 14.1449 50.7308 14.6051 51.032 15.1676C51.3331 15.7244 51.4837 16.392 51.4837 17.1705V26H48.0405V24.1847H47.9382C47.728 24.5938 47.4467 24.9545 47.0945 25.267C46.7422 25.5739 46.3189 25.8153 45.8246 25.9915C45.3303 26.1619 44.7592 26.2472 44.1115 26.2472ZM45.1513 23.7415C45.6854 23.7415 46.157 23.6364 46.5661 23.4261C46.9751 23.2102 47.2962 22.9205 47.5291 22.5568C47.7621 22.1932 47.8786 21.7812 47.8786 21.321V19.9318C47.7649 20.0057 47.6087 20.0739 47.4098 20.1364C47.2166 20.1932 46.9979 20.2472 46.7536 20.2983C46.5092 20.3437 46.2649 20.3864 46.0206 20.4261C45.7763 20.4602 45.5547 20.4915 45.3558 20.5199C44.9297 20.5824 44.5575 20.6818 44.2393 20.8182C43.9212 20.9545 43.674 21.1392 43.4979 21.3722C43.3217 21.5994 43.2337 21.8835 43.2337 22.2244C43.2337 22.7188 43.4126 23.0966 43.7706 23.358C44.1342 23.6136 44.5945 23.7415 45.1513 23.7415ZM57.9311 18.4318V26H54.3004V12.9091H57.7607V15.2188H57.9141C58.2038 14.4574 58.6896 13.8551 59.3714 13.4119C60.0533 12.9631 60.88 12.7386 61.8516 12.7386C62.7607 12.7386 63.5533 12.9375 64.2294 13.3352C64.9055 13.733 65.4311 14.3011 65.8061 15.0398C66.1811 15.7727 66.3686 16.6477 66.3686 17.6648V26H62.7379V18.3125C62.7436 17.5114 62.5391 16.8864 62.1243 16.4375C61.7095 15.983 61.1385 15.7557 60.4112 15.7557C59.9226 15.7557 59.4908 15.8608 59.1158 16.071C58.7464 16.2812 58.4567 16.5881 58.2464 16.9915C58.0419 17.3892 57.9368 17.8693 57.9311 18.4318ZM69.2983 8.54545H73.8494L78.6562 20.2727H78.8608L83.6676 8.54545H88.2188V26H84.6392V14.6392H84.4943L79.9773 25.9148H77.5398L73.0227 14.5966H72.8778V26H69.2983V8.54545ZM91.1911 26V12.9091H94.8217V26H91.1911ZM93.0149 11.2216C92.4751 11.2216 92.0121 11.0426 91.6257 10.6847C91.245 10.321 91.0547 9.88636 91.0547 9.38068C91.0547 8.88068 91.245 8.4517 91.6257 8.09375C92.0121 7.73011 92.4751 7.54829 93.0149 7.54829C93.5547 7.54829 94.0149 7.73011 94.3956 8.09375C94.782 8.4517 94.9751 8.88068 94.9751 9.38068C94.9751 9.88636 94.782 10.321 94.3956 10.6847C94.0149 11.0426 93.5547 11.2216 93.0149 11.2216ZM101.361 18.4318V26H97.7301V12.9091H101.19V15.2188H101.344C101.634 14.4574 102.119 13.8551 102.801 13.4119C103.483 12.9631 104.31 12.7386 105.281 12.7386C106.19 12.7386 106.983 12.9375 107.659 13.3352C108.335 13.733 108.861 14.3011 109.236 15.0398C109.611 15.7727 109.798 16.6477 109.798 17.6648V26H106.168V18.3125C106.173 17.5114 105.969 16.8864 105.554 16.4375C105.139 15.983 104.568 15.7557 103.841 15.7557C103.352 15.7557 102.92 15.8608 102.545 16.071C102.176 16.2812 101.886 16.5881 101.676 16.9915C101.472 17.3892 101.366 17.8693 101.361 18.4318ZM112.66 26V12.9091H116.29V26H112.66ZM114.484 11.2216C113.944 11.2216 113.481 11.0426 113.094 10.6847C112.714 10.321 112.523 9.88636 112.523 9.38068C112.523 8.88068 112.714 8.4517 113.094 8.09375C113.481 7.73011 113.944 7.54829 114.484 7.54829C115.023 7.54829 115.484 7.73011 115.864 8.09375C116.251 8.4517 116.444 8.88068 116.444 9.38068C116.444 9.88636 116.251 10.321 115.864 10.6847C115.484 11.0426 115.023 11.2216 114.484 11.2216ZM119.199 26V12.9091H122.659V15.2188H122.812C123.085 14.4517 123.54 13.8466 124.176 13.4034C124.812 12.9602 125.574 12.7386 126.46 12.7386C127.358 12.7386 128.122 12.9631 128.753 13.4119C129.384 13.8551 129.804 14.4574 130.014 15.2188H130.151C130.418 14.4688 130.901 13.8693 131.599 13.4205C132.304 12.9659 133.136 12.7386 134.097 12.7386C135.318 12.7386 136.31 13.1278 137.071 13.9062C137.838 14.679 138.222 15.7756 138.222 17.196V26H134.599V17.9119C134.599 17.1847 134.406 16.6392 134.02 16.2756C133.634 15.9119 133.151 15.7301 132.571 15.7301C131.912 15.7301 131.398 15.9403 131.028 16.3608C130.659 16.7756 130.474 17.3239 130.474 18.0057V26H126.955V17.8352C126.955 17.1932 126.77 16.6818 126.401 16.3011C126.037 15.9205 125.557 15.7301 124.96 15.7301C124.557 15.7301 124.193 15.8324 123.869 16.0369C123.551 16.2358 123.298 16.517 123.111 16.8807C122.923 17.2386 122.83 17.6591 122.83 18.142V26H119.199ZM144.822 26.2472C143.987 26.2472 143.243 26.1023 142.589 25.8125C141.936 25.517 141.419 25.0824 141.038 24.5085C140.663 23.929 140.476 23.2074 140.476 22.3438C140.476 21.6165 140.609 21.0057 140.876 20.5114C141.143 20.017 141.507 19.6193 141.967 19.3182C142.428 19.017 142.95 18.7898 143.536 18.6364C144.126 18.483 144.746 18.375 145.393 18.3125C146.155 18.233 146.768 18.1591 147.234 18.0909C147.7 18.017 148.038 17.9091 148.249 17.767C148.459 17.625 148.564 17.4148 148.564 17.1364V17.0852C148.564 16.5455 148.393 16.1278 148.053 15.8324C147.717 15.5369 147.24 15.3892 146.621 15.3892C145.967 15.3892 145.447 15.5341 145.061 15.8239C144.675 16.108 144.419 16.4659 144.294 16.8977L140.936 16.625C141.107 15.8295 141.442 15.142 141.942 14.5625C142.442 13.9773 143.087 13.5284 143.876 13.2159C144.672 12.8977 145.592 12.7386 146.638 12.7386C147.365 12.7386 148.061 12.8239 148.726 12.9943C149.396 13.1648 149.99 13.429 150.507 13.7869C151.03 14.1449 151.442 14.6051 151.743 15.1676C152.044 15.7244 152.195 16.392 152.195 17.1705V26H148.751V24.1847H148.649C148.439 24.5938 148.158 24.9545 147.805 25.267C147.453 25.5739 147.03 25.8153 146.536 25.9915C146.041 26.1619 145.47 26.2472 144.822 26.2472ZM145.862 23.7415C146.396 23.7415 146.868 23.6364 147.277 23.4261C147.686 23.2102 148.007 22.9205 148.24 22.5568C148.473 22.1932 148.589 21.7812 148.589 21.321V19.9318C148.476 20.0057 148.32 20.0739 148.121 20.1364C147.928 20.1932 147.709 20.2472 147.464 20.2983C147.22 20.3437 146.976 20.3864 146.732 20.4261C146.487 20.4602 146.266 20.4915 146.067 20.5199C145.641 20.5824 145.268 20.6818 144.95 20.8182C144.632 20.9545 144.385 21.1392 144.209 21.3722C144.033 21.5994 143.945 21.8835 143.945 22.2244C143.945 22.7188 144.124 23.0966 144.482 23.358C144.845 23.6136 145.305 23.7415 145.862 23.7415ZM158.642 8.54545V26H155.011V8.54545H158.642Z" fill="#00236F"/>
</svg>
